<svg preserveAspectRatio="none" width="100%" height="100%" overflow="visible" style="display: block;" viewBox="0 0 12.3538 12.3538" fill="none" xmlns="http://www.w3.org/2000/svg">
<g id="Container">
<path id="Icon" d="M11.6512 12.3538L9.64098 10.3435C9.41021 10.4914 9.16706 10.6196 8.9115 10.7281C8.65595 10.8367 8.39143 10.9277 8.11793 11.0012V9.9679C8.26066 9.91662 8.39955 9.86427 8.53459 9.81085C8.66963 9.75743 8.79741 9.69397 8.91792 9.62047L6.52817 7.23071V10.1204L3.66923 7.26147H1.19488V3.92819H3.22564L0 0.702547L0.702547 0L12.3538 11.6512L11.6512 12.3538V12.3538M11.3256 8.74996L10.6089 8.03331C10.8406 7.67177 11.0175 7.28395 11.1397 6.86984C11.2619 6.45574 11.323 6.02518 11.323 5.57817C11.323 4.56791 11.0292 3.66022 10.4416 2.85509C9.85403 2.04997 9.07946 1.49441 8.11793 1.18843V0.155119C9.36322 0.487599 10.3754 1.15384 11.1544 2.15383C11.9335 3.15382 12.323 4.29527 12.323 5.57817C12.323 6.16278 12.2361 6.72411 12.0621 7.26214C11.8882 7.80017 11.6427 8.29611 11.3256 8.74996V8.74996M9.28457 6.70895L8.11793 5.5423V3.12562C8.5675 3.37006 8.91493 3.71429 9.16022 4.15831C9.40552 4.60232 9.52817 5.08116 9.52817 5.59483C9.52817 5.79142 9.50787 5.98308 9.46727 6.16984C9.42667 6.35659 9.36577 6.53629 9.28457 6.70895V6.70895M6.52817 3.95254L5.08973 2.50769L6.52817 1.06925V3.95254V3.95254M5.52819 7.69483V6.23074L4.22562 4.92817V4.92817H2.19486V6.2615H4.09486L5.52819 7.69483V7.69483M4.8769 5.57945V5.57945V5.57945V5.57945V5.57945V5.57945V5.57945V5.57945V5.57945" fill="var(--fill-0, #1C3E27)"/>
</g>
</svg>
