<svg preserveAspectRatio="none" width="100%" height="100%" overflow="visible" style="display: block;" viewBox="0 0 11.1281 10.8461" fill="none" xmlns="http://www.w3.org/2000/svg">
<g id="Container">
<path id="Icon" d="M6.92305 10.8461V9.81279C7.88458 9.5068 8.65915 8.95125 9.24676 8.14612C9.83436 7.34099 10.1282 6.4333 10.1282 5.42305C10.1282 4.41279 9.83436 3.5051 9.24676 2.69998C8.65915 1.89485 7.88458 1.33929 6.92305 1.03331V0C8.16406 0.33248 9.17517 0.998717 9.95636 1.99871C10.7375 2.99871 11.1281 4.14015 11.1281 5.42305C11.1281 6.70594 10.7375 7.84739 9.95636 8.84738C9.17517 9.84738 8.16406 10.5136 6.92305 10.8461V10.8461M0 7.10636V3.77307H2.47434L5.33328 0.914132V9.9653L2.47434 7.10636H0V7.10636M6.92305 7.87559V2.9705C7.37261 3.21494 7.72005 3.55917 7.96534 4.00319C8.21064 4.4472 8.33328 4.92604 8.33328 5.43971C8.33328 5.94655 8.20957 6.41812 7.96214 6.85445C7.7147 7.29077 7.36834 7.63115 6.92305 7.87559V7.87559M4.33331 3.33971L2.89998 4.77305H0.999976V6.10638H2.89998L4.33331 7.53971V3.33971V3.33971M2.66664 5.43971V5.43971V5.43971V5.43971V5.43971V5.43971V5.43971V5.43971" fill="var(--fill-0, #424842)"/>
</g>
</svg>
