<svg preserveAspectRatio="none" width="100%" height="100%" overflow="visible" style="display: block;" viewBox="0 0 67.9997 67.9997" fill="none" xmlns="http://www.w3.org/2000/svg">
<path id="Icon" opacity="0.1" d="M0 67.9997V61.9999H59.9997V67.9997H0V67.9997M14.2691 52.4613C10.3307 52.4613 6.96789 51.0869 4.18073 48.3382C1.39358 45.5896 0 42.2716 0 38.3845V0H60.6151C62.6459 0 64.3843 0.706405 65.8305 2.11921C67.2766 3.53202 67.9997 5.24868 67.9997 7.26918V17.7306C67.9997 19.7511 67.2766 21.4678 65.8305 22.8806C64.3843 24.2934 62.6459 24.9998 60.6151 24.9998H52.6151V38.3845C52.6151 42.2716 51.2216 45.5896 48.4344 48.3382C45.6473 51.0869 42.2845 52.4613 38.346 52.4613H14.2691V52.4613M14.2691 46.4614H38.346C40.6201 46.4614 42.5668 45.6691 44.1862 44.0843C45.8056 42.4996 46.6153 40.5945 46.6153 38.3691V5.99985H5.99985V38.3834C5.99985 40.6098 6.80955 42.5127 8.42895 44.0922C10.0483 45.6717 11.9951 46.4614 14.2691 46.4614V46.4614M52.6151 18.9999H60.6151C60.9998 18.9999 61.3267 18.8781 61.596 18.6345C61.8652 18.3909 61.9999 18.0896 61.9999 17.7306V7.26918C61.9999 6.91018 61.8652 6.60887 61.596 6.36526C61.3267 6.12166 60.9998 5.99985 60.6151 5.99985H52.6151V18.9999V18.9999M14.2691 46.4614C11.9951 46.4614 10.0483 46.4614 8.42895 46.4614C6.80955 46.4614 5.99985 46.4614 5.99985 46.4614V46.4614H46.6153V46.4614C46.6153 46.4614 45.8056 46.4614 44.1862 46.4614C42.5668 46.4614 40.6201 46.4614 38.346 46.4614H14.2691V46.4614" fill="var(--fill-0, #1C3E27)"/>
</svg>
