<svg preserveAspectRatio="none" width="100%" height="100%" overflow="visible" style="display: block;" viewBox="0 0 42.9806 42.9806" fill="none" xmlns="http://www.w3.org/2000/svg">
<path id="Icon" d="M13.8653 20.4855L8.3317 15.0384L10.4278 12.9423L13.8028 16.3173L20.0528 10.0913L22.1489 12.1634L13.8653 20.4855V20.4855M40.3461 42.9806L24.6441 27.2787C23.3941 28.3108 21.9566 29.1184 20.3316 29.7018C18.7066 30.2851 17.0256 30.5768 15.2884 30.5768C11.0192 30.5768 7.40381 29.096 4.44229 26.1345C1.48076 23.173 0 19.5576 0 15.2884C0 11.0192 1.48076 7.40381 4.44229 4.44229C7.40381 1.48076 11.0192 0 15.2884 0C19.5576 0 23.173 1.48076 26.1345 4.44229C29.096 7.40381 30.5768 11.0192 30.5768 15.2884C30.5768 17.0736 30.2771 18.7788 29.6777 20.4038C29.0784 22.0288 28.2787 23.4422 27.2787 24.6441L42.9806 40.3461L40.3461 42.9806V42.9806M15.2884 26.8269C18.5096 26.8269 21.2379 25.7091 23.4735 23.4735C25.7091 21.2379 26.8269 18.5096 26.8269 15.2884C26.8269 12.0672 25.7091 9.33886 23.4735 7.10328C21.2379 4.8677 18.5096 3.74991 15.2884 3.74991C12.0672 3.74991 9.33886 4.8677 7.10328 7.10328C4.8677 9.33886 3.74991 12.0672 3.74991 15.2884C3.74991 18.5096 4.8677 21.2379 7.10328 23.4735C9.33886 25.7091 12.0672 26.8269 15.2884 26.8269V26.8269" fill="var(--fill-0, #3F665C)" fill-opacity="0.2"/>
</svg>
