<svg preserveAspectRatio="none" width="100%" height="100%" overflow="visible" style="display: block;" viewBox="0 0 7.33328 11.3333" fill="none" xmlns="http://www.w3.org/2000/svg">
<g id="Container">
<path id="Icon" d="M3.25638 10.3333H4.0769V9.02305L6.33331 6.76664V3.87179C6.33331 3.8205 6.31194 3.77349 6.2692 3.73075C6.22646 3.68801 6.17945 3.66664 6.12817 3.66664H1.20512C1.15383 3.66664 1.10682 3.68801 1.06408 3.73075C1.02134 3.77349 0.999976 3.8205 0.999976 3.87179V6.76664L3.25638 9.02305V10.3333V10.3333M2.2564 11.3333V9.44868L0 7.19227V3.87179C0 3.53931 0.117734 3.25534 0.353202 3.01987C0.588671 2.7844 0.872643 2.66667 1.20512 2.66667H1.94871L1.44873 3.16665V0H2.4487V2.66667H4.88458V0H5.88456V3.16665L5.38457 2.66667H6.12817C6.46064 2.66667 6.74461 2.7844 6.98008 3.01987C7.21555 3.25534 7.33328 3.53931 7.33328 3.87179V7.19227L5.07688 9.44868V11.3333H2.2564V11.3333M3.66664 6.99998V6.99998V6.99998V6.99998V6.99998V6.99998V6.99998V6.99998V6.99998V6.99998V6.99998V6.99998V6.99998V6.99998" fill="var(--fill-0, #424842)"/>
</g>
</svg>
