<svg preserveAspectRatio="none" width="100%" height="100%" overflow="visible" style="display: block;" viewBox="0 0 54.9999 54.5384" fill="none" xmlns="http://www.w3.org/2000/svg">
<g id="Background+Shadow" filter="url(#filter0_d_2_8)">
<rect x="2" y="1" width="50.9999" height="50.5384" rx="16" fill="var(--fill-0, white)" shape-rendering="crispEdges"/>
<path id="Icon" d="M24.7961 28.4615L27.5 26.8211L30.2038 28.4615L29.4865 25.3865L31.8846 23.3192L28.7288 23.0538L27.5 20.1538L26.2711 23.0538L23.1154 23.3192L25.5134 25.3865L24.7961 28.4615V28.4615M18 35.5384V18.8077C18 18.3026 18.175 17.875 18.525 17.525C18.875 17.175 19.3026 17 19.8077 17H35.1922C35.6974 17 36.1249 17.175 36.4749 17.525C36.8249 17.875 36.9999 18.3026 36.9999 18.8077V30.1922C36.9999 30.6974 36.8249 31.1249 36.4749 31.4749C36.1249 31.8249 35.6974 31.9999 35.1922 31.9999H21.5384L18 35.5384V35.5384M20.9 30.5H35.1922C35.2692 30.5 35.3397 30.4679 35.4038 30.4038C35.4679 30.3397 35.5 30.2692 35.5 30.1922V18.8077C35.5 18.7307 35.4679 18.6602 35.4038 18.5961C35.3397 18.532 35.2692 18.5 35.1922 18.5H19.8077C19.7307 18.5 19.6602 18.532 19.5961 18.5961C19.532 18.6602 19.5 18.7307 19.5 18.8077V31.8846L20.9 30.5V30.5M19.5 30.5V30.5V18.8077C19.5 18.7307 19.5 18.6602 19.5 18.5961C19.5 18.532 19.5 18.5 19.5 18.5V18.5C19.5 18.5 19.5 18.532 19.5 18.5961C19.5 18.6602 19.5 18.7307 19.5 18.8077V30.1922C19.5 30.2692 19.5 30.3397 19.5 30.4038C19.5 30.4679 19.5 30.5 19.5 30.5V30.5V30.5" fill="var(--fill-0, #3F665C)"/>
</g>
<defs>
<filter id="filter0_d_2_8" x="0" y="0" width="54.9999" height="54.5384" filterUnits="userSpaceOnUse" color-interpolation-filters="sRGB">
<feFlood flood-opacity="0" result="BackgroundImageFix"/>
<feColorMatrix in="SourceAlpha" type="matrix" values="0 0 0 0 0 0 0 0 0 0 0 0 0 0 0 0 0 0 127 0" result="hardAlpha"/>
<feOffset dy="1"/>
<feGaussianBlur stdDeviation="1"/>
<feComposite in2="hardAlpha" operator="out"/>
<feColorMatrix type="matrix" values="0 0 0 0 0 0 0 0 0 0 0 0 0 0 0 0 0 0 0.05 0"/>
<feBlend mode="normal" in2="BackgroundImageFix" result="effect1_dropShadow_2_8"/>
<feBlend mode="normal" in="SourceGraphic" in2="effect1_dropShadow_2_8" result="shape"/>
</filter>
</defs>
</svg>
