<svg preserveAspectRatio="none" width="100%" height="100%" overflow="visible" style="display: block;" viewBox="0 0 15.282 10.6282" fill="none" xmlns="http://www.w3.org/2000/svg">
<g id="Container">
<path id="Icon" d="M7.641 10.6282C7.26408 10.6282 6.9455 10.498 6.68525 10.2378C6.425 9.97752 6.29487 9.65894 6.29487 9.28202C6.29487 8.90511 6.425 8.58652 6.68525 8.32627C6.9455 8.06602 7.26408 7.93589 7.641 7.93589C8.01792 7.93589 8.3365 8.06602 8.59675 8.32627C8.857 8.58652 8.98713 8.90511 8.98713 9.28202C8.98713 9.65894 8.857 9.97752 8.59675 10.2378C8.3365 10.498 8.01792 10.6282 7.641 10.6282V10.6282M3.87433 7.05381L2.83333 5.9923C3.45042 5.37521 4.16858 4.88888 4.98781 4.53333C5.80704 4.17778 6.69143 4 7.641 4C8.59057 4 9.47496 4.17949 10.2942 4.53846C11.1134 4.89743 11.8316 5.38888 12.4487 6.01281L11.4077 7.05381C10.9188 6.56492 10.3521 6.18159 9.70767 5.90381C9.06322 5.62603 8.37433 5.48714 7.641 5.48714C6.90767 5.48714 6.21878 5.62603 5.57433 5.90381C4.92989 6.18159 4.36322 6.56492 3.87433 7.05381V7.05381M1.041 4.22048L0 3.17948C0.97521 2.19059 2.11409 1.41346 3.41665 0.848074C4.71921 0.282691 6.12733 0 7.641 0C9.15467 0 10.5628 0.282691 11.8653 0.848074C13.1679 1.41346 14.3068 2.19059 15.282 3.17948L14.241 4.22048C13.3854 3.36492 12.3938 2.69548 11.266 2.21214C10.1382 1.72881 8.92989 1.48714 7.641 1.48714C6.35211 1.48714 5.14378 1.72881 4.016 2.21214C2.88822 2.69548 1.89655 3.36492 1.041 4.22048V4.22048" fill="var(--fill-0, #424842)"/>
</g>
</svg>
